<svg width="55" height="55" viewBox="0 0 55 55" fill="none" xmlns="http://www.w3.org/2000/svg">
<path d="M50.3309 28.1099C49.8962 40.8225 39.2314 50.7683 26.536 50.3298C13.8231 49.8952 3.8774 39.2308 4.31596 26.5357C4.75064 13.8231 15.3977 3.88107 28.1107 4.31585C40.8022 4.73661 50.7657 15.3972 50.3309 28.1099Z" fill="url(#paint0_linear_113_68)"/>
<path d="M37.5532 22.2654C37.3716 19.2389 34.7437 18.1405 31.3601 17.7622L31.5399 13.5588L28.9264 13.4851L28.76 17.5774C28.0702 17.5623 27.3627 17.5509 26.6588 17.5568L26.8215 13.4471L24.208 13.3734L24.0423 17.5558C23.4663 17.5524 22.9081 17.5453 22.3677 17.5343L22.364 17.5171L18.7443 17.4235L18.6393 20.1505C18.6393 20.1505 20.5734 20.1708 20.5416 20.1956C21.6047 20.2213 21.922 20.8388 21.9968 21.3638L21.7927 26.1493C21.8674 26.1514 21.9598 26.1498 22.0773 26.1788C21.9849 26.1805 21.8925 26.1821 21.7964 26.1666L21.517 32.8614C21.4553 33.1811 21.2315 33.6976 20.5025 33.6728C20.5276 33.7035 18.6002 33.6277 18.6002 33.6277L17.95 36.6693L21.3671 36.77C22.0037 36.7965 22.6188 36.8095 23.2376 36.8399L23.0651 41.0778L25.6786 41.1515L25.8584 36.9481C26.5697 36.9767 27.2809 37.0053 27.9529 37.0243L27.7872 41.2067L30.4007 41.2804L30.5732 37.0425C34.9983 36.9101 38.1268 35.9184 38.6598 31.8921C39.1025 28.6604 37.5951 27.1607 35.1161 26.4994C36.6895 25.7852 37.6898 24.472 37.5532 22.2654ZM33.511 31.2412C33.3878 34.4048 27.824 33.8964 26.0496 33.8421L26.2798 28.2216C28.0541 28.2759 33.658 27.9282 33.511 31.2412ZM32.6258 23.2621C32.5007 26.1556 27.8721 25.6822 26.3964 25.6363L26.609 20.5424C28.0847 20.5883 32.7466 20.2613 32.6258 23.2621Z" fill="white"/>
<defs>
<linearGradient id="paint0_linear_113_68" x1="2250.58" y1="-471.485" x2="3211.25" y2="4033.19" gradientUnits="userSpaceOnUse">
<stop stop-color="#F9AA4B"/>
<stop offset="1" stop-color="#F7931A"/>
</linearGradient>
</defs>
</svg>
