<svg width="61" height="62" viewBox="0 0 61 62" fill="none" xmlns="http://www.w3.org/2000/svg">
<path d="M31.232 20.7453H26.873V29.3361H33.7279V32.9325H26.873V41.5234H31.4455C32.6198 41.5234 41.0886 41.6555 41.0759 31.527C41.0632 21.3985 32.8612 20.7453 31.232 20.7453ZM30.5 0.645752C13.6564 0.645752 0 14.3021 0 31.1458C0 47.9894 13.6564 61.6458 30.5 61.6458C47.3436 61.6458 61 47.9894 61 31.1458C61 14.3021 47.3436 0.645752 30.5 0.645752ZM31.6997 47.6183H20.6536V32.9325H16.7598V29.3361H20.6536V14.6529H30.134C32.3758 14.6529 47.2318 14.1878 47.2318 31.4126C47.2293 48.9196 31.6997 47.6183 31.6997 47.6183Z" fill="black"/>
</svg>
