<svg width="55" height="56" viewBox="0 0 55 56" fill="none" xmlns="http://www.w3.org/2000/svg">
<path fill-rule="evenodd" clip-rule="evenodd" d="M27.5 0.645782C12.3123 0.645782 0 12.9581 0 28.1458C0 43.3335 12.3123 55.6458 27.5 55.6458C42.6877 55.6458 55 43.3335 55 28.1458C55 12.9581 42.6877 0.645782 27.5 0.645782ZM29.0605 9.12346C28.8829 8.87525 28.6487 8.67298 28.3773 8.53343C28.1059 8.39389 27.8052 8.32109 27.5 8.32109C27.1948 8.32109 26.8941 8.39389 26.6227 8.53343C26.3513 8.67298 26.1171 8.87525 25.9395 9.12346L13.1488 27.0304C12.9163 27.3559 12.7913 27.7458 12.7913 28.1458C12.7913 28.5457 12.9163 28.9357 13.1488 29.2611L25.9395 47.1681C26.1171 47.4163 26.3513 47.6186 26.6227 47.7581C26.8941 47.8977 27.1948 47.9705 27.5 47.9705C27.8052 47.9705 28.1059 47.8977 28.3773 47.7581C28.6487 47.6186 28.8829 47.4163 29.0605 47.1681L41.8512 29.2611C42.0837 28.9357 42.2087 28.5457 42.2087 28.1458C42.2087 27.7458 42.0837 27.3559 41.8512 27.0304L29.0605 9.12346ZM27.5 42.7528L19.0914 30.9776L27.124 32.5842C27.3747 32.6353 27.6253 32.6353 27.876 32.5842L35.9086 30.9776L27.5 42.7528ZM29.4186 28.3632L37.006 26.8462L29.4186 16.2249V28.3632ZM25.5814 28.3632V16.2249L17.994 26.8462L25.5814 28.3632Z" fill="black"/>
</svg>
