<svg width="56" height="57" viewBox="0 0 56 57" fill="none" xmlns="http://www.w3.org/2000/svg">
<path d="M28 51.5549C31.0085 51.5549 33.9875 50.9623 36.7669 49.811C39.5464 48.6597 42.0719 46.9723 44.1992 44.845C46.3265 42.7176 48.014 40.1922 49.1652 37.4127C50.3165 34.6333 50.9091 31.6542 50.9091 28.6458C50.9091 25.6373 50.3165 22.6583 49.1652 19.8789C48.014 17.0994 46.3265 14.5739 44.1992 12.4466C42.0719 10.3193 39.5464 8.63183 36.7669 7.48054C33.9875 6.32925 31.0085 5.73669 28 5.73669C21.9241 5.73669 16.0971 8.15032 11.8008 12.4466C7.50454 16.7429 5.09091 22.5699 5.09091 28.6458C5.09091 34.7216 7.50454 40.5487 11.8008 44.845C16.0971 49.1412 21.9241 51.5549 28 51.5549ZM56 28.6458C56 44.1094 43.4636 56.6458 28 56.6458C12.5364 56.6458 0 44.1094 0 28.6458C0 13.1821 12.5364 0.645782 28 0.645782C43.4636 0.645782 56 13.1821 56 28.6458ZM28.2164 47.7367H22.9091V35.0094H13.4655L27.7836 9.55487H33.0909V22.2821H42.5345L28.2164 47.7367ZM28 37.7356L33.8291 27.3731H28V19.556L22.1709 29.9185H28V37.7356Z" fill="#FFD233"/>
</svg>
