<svg width="61" height="62" viewBox="0 0 61 62" fill="none" xmlns="http://www.w3.org/2000/svg">
<path d="M30.5 0.645752C24.4677 0.645752 18.5708 2.43455 13.5551 5.78593C8.53942 9.13731 4.63016 13.9008 2.32169 19.4739C0.0132152 25.0471 -0.590786 31.1796 0.586062 37.096C1.76291 43.0124 4.66775 48.447 8.93325 52.7125C13.1988 56.978 18.6333 59.8828 24.5498 61.0597C30.4662 62.2365 36.5987 61.6325 42.1718 59.3241C47.745 57.0156 52.5084 53.1063 55.8598 48.0906C59.2112 43.0749 61 37.1781 61 31.1457C61 23.0566 57.7866 15.2989 52.0668 9.57899C46.3469 3.85913 38.5891 0.645752 30.5 0.645752ZM29.8341 9.994H36.4018C36.5361 9.99417 36.6686 10.0254 36.7889 10.0852C36.9092 10.145 37.014 10.2319 37.0952 10.3389C37.1764 10.4459 37.2318 10.5703 37.257 10.7022C37.2822 10.8342 37.2765 10.9702 37.2405 11.0996L32.0809 28.6829L36.9228 27.2036L35.8858 30.7238L30.9956 32.1472L27.8236 42.8577H44.7918C44.9263 42.8585 45.0588 42.8903 45.1789 42.9508C45.299 43.0112 45.4036 43.0986 45.4843 43.2062C45.565 43.3138 45.6198 43.4385 45.6443 43.5708C45.6688 43.703 45.6623 43.8391 45.6255 43.9685L44.1462 49.0518C44.075 49.2934 43.9277 49.5056 43.7262 49.6567C43.5247 49.8078 43.2798 49.8899 43.0279 49.8905H17.1131L21.4923 35.093L16.6479 36.5671L17.7154 33.1079L22.57 31.6337L28.7259 10.8429C28.7934 10.5998 28.9384 10.3854 29.1389 10.2321C29.3393 10.0789 29.5843 9.99532 29.8366 9.994" fill="#BBBBBB"/>
</svg>
