<svg width="61" height="54" viewBox="0 0 61 54" fill="none" xmlns="http://www.w3.org/2000/svg">
<path d="M47.6669 23.3825C47.6669 24.969 41.9785 26.2966 34.3533 26.6317L34.3583 26.6343C33.0887 26.7036 31.8172 26.7315 30.5457 26.718C28.5657 26.718 27.1652 26.6596 26.6722 26.6368C19.0317 26.2992 13.3281 24.9716 13.3281 23.3825C13.3281 21.7935 19.0317 20.4633 26.6722 20.1232V25.3117C27.1703 25.3498 28.6013 25.4336 30.5788 25.4336C32.9502 25.4336 34.1372 25.332 34.3533 25.3143V20.1282C41.9785 20.4659 47.6669 21.796 47.6669 23.3825ZM60.8584 24.7685L30.8152 53.5188C30.73 53.6003 30.6166 53.6457 30.4987 53.6457C30.3808 53.6457 30.2674 53.6003 30.1823 53.5188L0.141551 24.7685C0.0717372 24.7019 0.0247979 24.615 0.00744952 24.5202C-0.00989883 24.4253 0.00323284 24.3274 0.0449657 24.2405L11.1676 0.907212C11.2047 0.828878 11.2634 0.762702 11.3367 0.716407C11.4101 0.670113 11.4951 0.645608 11.5819 0.645753H49.4232C49.5087 0.647037 49.5921 0.672213 49.664 0.718425C49.7358 0.764638 49.7933 0.830038 49.8299 0.907212L60.955 24.2405C60.9968 24.3274 61.0099 24.4253 60.9925 24.5202C60.9752 24.615 60.9283 24.7019 60.8584 24.7685ZM49.4766 23.743C49.4766 21.697 42.9901 19.9861 34.3609 19.5876V14.9473H45.0006V7.86506H16.0325V14.9473H26.6696V19.5901C18.0226 19.9861 11.5209 21.697 11.5209 23.7455C11.5209 25.7966 18.0226 27.5024 26.6696 27.9035V42.7838H34.3583V27.8984C42.985 27.4999 49.4766 25.7915 49.4766 23.743Z" fill="#0FA958"/>
</svg>
