<svg width="55" height="56" viewBox="0 0 55 56" fill="none" xmlns="http://www.w3.org/2000/svg">
<path d="M27.3229 55.0208C42.4129 55.0208 54.6458 42.7879 54.6458 27.6979C54.6458 12.6079 42.4129 0.375 27.3229 0.375C12.2329 0.375 0 12.6079 0 27.6979C0 42.7879 12.2329 55.0208 27.3229 55.0208Z" fill="#3E73C4"/>
<path d="M34.1902 31.325C34.1902 27.6979 32.0044 26.4547 27.6327 25.9356C24.5111 25.5206 23.8878 24.6924 23.8878 23.2409C23.8878 21.7893 24.9295 20.8569 27.0094 20.8569C28.8827 20.8569 29.9244 21.4785 30.4436 23.0342C30.4977 23.1847 30.5966 23.3149 30.7269 23.4074C30.8573 23.4999 31.0129 23.5503 31.1727 23.5517H32.8377C32.9339 23.5542 33.0296 23.5372 33.119 23.5017C33.2084 23.4662 33.2896 23.4129 33.3578 23.345C33.426 23.2772 33.4797 23.1962 33.5156 23.1069C33.5516 23.0177 33.569 22.9221 33.5669 22.8259V22.7234C33.3634 21.5979 32.7939 20.5711 31.9469 19.8025C31.0999 19.0339 30.0227 18.5665 28.8827 18.473V15.9866C28.8827 15.5717 28.5702 15.2609 28.0511 15.1567H26.4886C26.0736 15.1567 25.7611 15.4675 25.6569 15.9866V18.3706C22.5336 18.7838 20.5578 20.8569 20.5578 23.4492C20.5578 26.868 22.6378 28.2153 27.0094 28.7345C29.9244 29.2519 30.8602 29.8752 30.8602 31.5334C30.8602 33.1898 29.4036 34.3306 27.4261 34.3306C24.7194 34.3306 23.7836 33.1915 23.4711 31.6358C23.3686 31.2226 23.0544 31.0142 22.7419 31.0142H20.9728C20.8767 31.0119 20.7812 31.0291 20.692 31.0647C20.6028 31.1003 20.5218 31.1537 20.4538 31.2215C20.3858 31.2893 20.3322 31.3703 20.2964 31.4594C20.2606 31.5485 20.2432 31.644 20.2453 31.74V31.8425C20.6603 34.4347 22.327 36.2995 25.7611 36.8186V39.3067C25.7611 39.72 26.0736 40.0325 26.5927 40.135H28.1553C28.5702 40.135 28.8827 39.8242 28.9869 39.3067V36.8169C32.1103 36.2995 34.1902 34.1222 34.1902 31.3233V31.325Z" fill="white"/>
<path d="M22.0154 42.2081C13.8971 39.305 9.73375 30.2885 12.7529 22.3085C14.3138 17.9539 17.7479 14.6393 22.0154 13.0836C22.4321 12.8769 22.6387 12.5661 22.6387 12.047V10.5955C22.6387 10.1822 22.4321 9.87142 22.0154 9.76725C21.9112 9.76725 21.7029 9.76725 21.5987 9.86971C19.2565 10.6012 17.0821 11.7887 15.2008 13.3639C13.3194 14.9392 11.7682 16.871 10.6365 19.0482C9.50481 21.2254 8.81497 23.605 8.60669 26.0499C8.39842 28.4948 8.67583 30.9567 9.42295 33.294C11.2946 39.1001 15.7704 43.5572 21.5987 45.4219C22.0154 45.6286 22.4321 45.4219 22.5345 45.007C22.6387 44.9045 22.6387 44.7986 22.6387 44.592V43.1405C22.6387 42.8297 22.3279 42.4164 22.0154 42.2081ZM33.047 9.87142C32.6303 9.66308 32.2137 9.87142 32.1112 10.2847C32.007 10.3888 32.007 10.493 32.007 10.6996V12.1512C32.007 12.5661 32.3178 12.9794 32.6303 13.1877C40.7487 16.0908 44.912 25.1074 41.8928 33.0874C40.332 37.4419 36.8978 40.7566 32.6303 42.3123C32.2137 42.5189 32.007 42.8297 32.007 43.3488V44.8003C32.007 45.2136 32.2137 45.5244 32.6303 45.6286C32.7345 45.6286 32.9429 45.6286 33.047 45.5261C35.3892 44.7947 37.5636 43.6071 39.445 42.0319C41.3264 40.4567 42.8775 38.5248 44.0092 36.3476C45.1409 34.1704 45.8308 31.7909 46.0391 29.346C46.2473 26.901 45.9699 24.4391 45.2228 22.1018C43.3512 16.1933 38.7712 11.7362 33.047 9.87142Z" fill="white"/>
</svg>
