<svg width="29" height="27" viewBox="0 0 29 27" fill="none" xmlns="http://www.w3.org/2000/svg">
<path d="M2.63636 13.5C1.18636 13.5 0 12.15 0 10.5V3C0 1.35 1.18636 0 2.63636 0H13.1818C14.6318 0 15.8182 1.35 15.8182 3V10.5C15.8182 12.15 14.6318 13.5 13.1818 13.5H10.5455V18L6.59091 13.5H2.63636ZM26.3636 22.5C27.8136 22.5 29 21.15 29 19.5V12C29 10.35 27.8136 9 26.3636 9H18.4545V10.5C18.4545 13.8 16.0818 16.5 13.1818 16.5V19.5C13.1818 21.15 14.3682 22.5 15.8182 22.5H18.4545V27L22.4091 22.5H26.3636Z" fill="black"/>
</svg>
