<svg width="25" height="29" viewBox="0 0 25 29" fill="none" xmlns="http://www.w3.org/2000/svg">
<path fill-rule="evenodd" clip-rule="evenodd" d="M12.5 2.9C10.751 2.89963 9.03241 3.4314 7.5159 4.44226C5.99939 5.45311 4.73797 6.90768 3.85753 8.66078C2.97709 10.4139 2.50844 12.4042 2.49834 14.433C2.48825 16.4619 2.93707 18.4584 3.80001 20.2231C4.38327 19.3438 5.13305 18.6319 5.99136 18.1424C6.84968 17.6528 7.79355 17.3988 8.75 17.4H16.25C17.2064 17.3988 18.1503 17.6528 19.0086 18.1424C19.867 18.6319 20.6167 19.3438 21.2 20.2231C22.0629 18.4584 22.5117 16.4619 22.5017 14.433C22.4916 12.4042 22.0229 10.4139 21.1425 8.66078C20.262 6.90768 19.0006 5.45311 17.4841 4.44226C15.9676 3.4314 14.249 2.89963 12.5 2.9ZM22.4287 23.3102C24.1 20.7828 25.004 17.6853 25 14.5C25 6.49164 19.4037 0 12.5 0C5.59626 0 1.40665e-05 6.49164 1.40665e-05 14.5C-0.00411273 17.6853 0.899895 20.7828 2.57126 23.3102L2.56501 23.3363L3.00876 23.9351C4.18112 25.5251 5.63674 26.8012 7.2753 27.6756C8.91385 28.55 10.6964 29.0018 12.5 29C15.0342 29.0054 17.5092 28.1124 19.5937 26.4407C20.4824 25.7285 21.2882 24.8864 21.9912 23.9351L22.435 23.3363L22.4287 23.3102ZM12.5 5.79999C11.5054 5.79999 10.5516 6.2583 9.84835 7.07408C9.14509 7.88986 8.75 8.9963 8.75 10.15C8.75 11.3037 9.14509 12.4101 9.84835 13.2259C10.5516 14.0417 11.5054 14.5 12.5 14.5C13.4946 14.5 14.4484 14.0417 15.1516 13.2259C15.8549 12.4101 16.25 11.3037 16.25 10.15C16.25 8.9963 15.8549 7.88986 15.1516 7.07408C14.4484 6.2583 13.4946 5.79999 12.5 5.79999Z" fill="black"/>
</svg>
