<svg width="9" height="15" viewBox="0 0 9 15" fill="none" xmlns="http://www.w3.org/2000/svg">
<path d="M1.97601 7.5L8.76012 13.7182C8.91371 13.859 9 14.05 9 14.2491C9 14.4483 8.91371 14.6393 8.76012 14.7801C8.60653 14.9209 8.39822 15 8.18101 15C7.9638 15 7.75549 14.9209 7.6019 14.7801L0.240305 8.03093C0.164132 7.96127 0.103697 7.87852 0.0624612 7.78741C0.0212257 7.69631 0 7.59864 0 7.5C0 7.40136 0.0212257 7.30369 0.0624612 7.21259C0.103697 7.12148 0.164132 7.03873 0.240305 6.96907L7.6019 0.219919C7.75549 0.0791073 7.9638 0 8.18101 0C8.39822 0 8.60653 0.0791073 8.76012 0.219919C8.91371 0.360732 9 0.551714 9 0.750853C9 0.949991 8.91371 1.14097 8.76012 1.28179L1.97601 7.5Z" fill="black"/>
</svg>
